<?xml version="1.0" standalone="no"?>
<!DOCTYPE svg PUBLIC "-//W3C//DTD SVG 20010904//EN"
 "http://www.w3.org/TR/2001/REC-SVG-20010904/DTD/svg10.dtd">
<svg version="1.0" xmlns="http://www.w3.org/2000/svg"
 width="1024.000000pt" height="1024.000000pt" viewBox="0 0 1024.000000 1024.000000"
 preserveAspectRatio="xMidYMid meet">

<g transform="translate(0.000000,1024.000000) scale(0.100000,-0.100000)"
fill="#000000" stroke="none">
<path d="M5145 8828 c-99 -3 -200 -11 -225 -17 -25 -5 -99 -19 -165 -31 -240
-42 -542 -128 -767 -219 -248 -99 -600 -302 -762 -439 -262 -221 -342 -298
-529 -509 -162 -184 -372 -507 -487 -750 -229 -484 -320 -957 -307 -1601 4
-236 9 -299 31 -427 80 -469 292 -971 591 -1405 184 -266 475 -550 765 -746
25 -17 81 -56 125 -86 134 -93 247 -155 480 -261 333 -152 606 -229 933 -263
205 -22 776 -21 922 1 342 51 619 122 840 214 173 71 452 213 554 281 44 29
95 60 115 69 42 18 293 210 394 299 101 90 286 290 379 410 238 308 419 653
538 1027 130 409 194 906 161 1262 -62 676 -263 1252 -589 1693 -340 459 -608
723 -981 964 -228 148 -594 316 -831 383 -474 132 -748 167 -1185 151z m588
-242 c416 -66 692 -156 1079 -353 291 -148 496 -296 744 -540 258 -253 474
-551 629 -868 375 -766 429 -1679 146 -2463 -188 -518 -461 -943 -803 -1249
-110 -98 -331 -264 -443 -332 -427 -258 -849 -412 -1336 -487 -139 -21 -651
-31 -829 -15 -492 44 -995 230 -1465 544 -137 92 -196 139 -367 294 -195 178
-312 312 -445 514 -209 316 -376 701 -458 1052 -55 236 -86 663 -66 901 43
516 157 959 333 1296 64 123 172 306 215 363 261 350 458 545 788 781 389 278
834 458 1345 545 241 41 213 40 540 36 204 -2 325 -8 393 -19z"/>
<path d="M5160 8033 c-390 -40 -805 -290 -1018 -612 -138 -209 -186 -435 -163
-754 6 -76 18 -164 26 -195 l16 -57 -53 -55 c-66 -69 -88 -127 -88 -232 0 -98
15 -168 51 -243 55 -114 162 -210 263 -237 49 -13 48 -12 61 -93 14 -85 76
-252 121 -325 55 -90 146 -203 185 -231 29 -20 29 -20 29 -134 0 -131 -21
-215 -70 -282 -46 -63 -180 -147 -441 -278 -241 -121 -427 -229 -516 -296
-133 -103 -263 -266 -348 -437 -41 -80 -95 -242 -95 -281 0 -9 31 -47 69 -85
l68 -68 15 39 c9 21 32 92 53 158 57 184 122 292 254 420 151 146 284 231 646
413 245 123 334 181 403 260 75 87 139 218 152 311 6 41 12 76 13 78 2 1 20
-11 40 -28 52 -43 172 -96 274 -121 109 -26 267 -29 365 -5 84 21 230 79 281
113 46 30 51 26 62 -44 12 -78 53 -174 105 -242 88 -117 217 -203 565 -377
343 -172 440 -233 571 -359 79 -77 139 -154 175 -226 33 -65 113 -275 124
-325 3 -18 10 -35 15 -38 4 -3 42 23 84 58 75 62 75 62 69 102 -7 50 -57 194
-90 260 -91 180 -246 353 -420 467 -130 86 -355 207 -573 308 -197 92 -258
130 -324 200 -61 65 -93 136 -107 236 -17 124 -9 166 48 231 93 107 140 168
164 213 13 25 34 60 46 78 21 31 85 214 98 277 5 26 15 35 69 58 79 35 146
100 209 204 80 134 96 274 47 407 -20 53 -79 128 -108 137 -10 3 -8 31 9 134
30 185 24 436 -14 576 -93 341 -310 572 -580 614 -30 5 -41 13 -56 43 -59 114
-263 226 -469 257 -89 14 -225 17 -312 8z m619 -883 c64 -152 110 -231 194
-336 95 -118 219 -224 279 -239 l25 -6 -5 -169 c-3 -92 -2 -180 2 -195 9 -34
57 -55 126 -55 41 0 56 5 76 25 l25 25 9 -26 c26 -66 -2 -186 -59 -254 -38
-46 -116 -88 -193 -104 -71 -14 -61 4 -93 -171 -33 -176 -105 -312 -257 -483
-104 -116 -175 -176 -277 -230 -117 -63 -183 -83 -291 -89 -223 -12 -407 74
-617 290 -188 193 -245 307 -288 571 -8 49 -19 94 -23 98 -5 5 -39 13 -76 19
-80 11 -109 25 -158 76 -80 83 -113 240 -64 306 13 16 16 15 49 -18 30 -30 41
-35 83 -35 84 0 96 22 87 152 -5 82 9 292 23 354 5 21 7 21 52 6 64 -20 369
-29 469 -12 89 14 244 65 333 110 103 51 230 140 288 200 108 111 222 270 222
309 0 22 4 14 59 -119z"/>
</g>
</svg>
